<svg width="254" height="91" viewBox="0 0 254 91" fill="none" xmlns="http://www.w3.org/2000/svg">
<path d="M20.2585 90.4796C14.6242 90.4796 10.3985 90.231 7.58139 89.7339C4.84712 89.2367 2.89999 88.2425 1.73999 86.751C0.579997 85.1768 0 82.7739 0 79.5425V71.8368C0 69.8483 0.372855 68.3154 1.11857 67.2383C1.86428 66.1611 3.23141 65.6226 5.21998 65.6226H21.1285C27.2599 65.6226 31.527 63.4268 33.9298 59.0354C36.3327 54.644 37.5341 49.1341 37.5341 42.5055C37.5341 34.2198 36.1256 27.7156 33.3084 22.9928C30.4913 18.1871 26.307 15.7842 20.7556 15.7842C17.9385 15.7842 15.7842 16.5299 14.2928 18.0213C12.8014 19.5128 12.0557 21.7085 12.0557 24.6085C12.0557 28.5856 12.6771 32.0241 13.9199 34.9241C15.1628 37.7413 16.9028 40.7655 19.1399 43.9969C20.8799 46.6484 22.1228 48.7612 22.8685 50.3355C23.6142 51.9098 23.987 53.6498 23.987 55.5555C23.987 57.544 23.4899 59.1183 22.4956 60.2783C21.5842 61.4383 20.2585 62.0183 18.5185 62.0183H6.46283C3.97713 62.0183 2.27856 61.3554 1.36714 60.0297C0.538569 58.704 0.124285 56.5083 0.124285 53.4426V17.8971C0.124285 14.0028 0.538569 10.9371 1.36714 8.69996C2.1957 6.46283 3.72855 4.76426 5.96569 3.60427C8.28568 2.44427 11.6414 1.86428 16.0328 1.86428H22.8685C30.2427 1.86428 36.5398 4.30855 41.7598 9.1971C46.9798 14.0028 50.9155 20.3828 53.5669 28.337C56.3012 36.2913 57.6683 44.9498 57.6683 54.3126C57.6683 67.1554 54.5612 76.3939 48.3469 82.0282C42.1327 87.6625 32.7699 90.4796 20.2585 90.4796Z" fill="#F0EDE6"/>
<path d="M68.3306 88.8639C65.8449 88.8639 64.0635 88.3253 62.9864 87.2482C61.9092 86.0882 61.3706 83.9753 61.3706 80.9096V62.764C61.3706 60.444 61.6606 58.704 62.2406 57.544C62.8206 56.384 63.8563 55.804 65.3478 55.804C67.2535 55.804 68.9935 56.384 70.5677 57.544C72.2249 58.6212 74.2134 60.3197 76.5334 62.6397C79.682 65.7054 82.5406 68.0668 85.1091 69.724C87.6777 71.2982 90.7434 72.0854 94.3062 72.0854C97.5376 72.0854 99.9819 70.8011 101.639 68.2325C103.296 65.664 104.125 62.184 104.125 57.7926C104.125 53.9812 103.669 51.3298 102.758 49.8383C101.929 48.3469 100.562 47.6012 98.6562 47.6012C97.9933 47.6012 97.1234 47.8084 96.0462 48.2226C95.0519 48.5541 94.0576 48.9269 93.0634 49.3412C90.9091 50.3355 88.8791 51.1226 86.9734 51.7026C85.0677 52.2826 82.9548 52.5726 80.6348 52.5726C68.4549 52.5726 62.3649 43.6655 62.3649 25.8513V10.4399C62.3649 7.37425 62.8206 5.17855 63.7321 3.85284C64.6435 2.52713 66.3421 1.86428 68.8278 1.86428H81.7534C84.4877 1.86428 86.352 2.52713 87.3462 3.85284C88.3405 5.17855 88.8377 7.33282 88.8377 10.3157C88.8377 12.3871 88.5062 14.2514 87.8434 15.9085C87.1805 17.5656 86.1862 19.4713 84.8605 21.6256C83.7005 23.3656 82.8306 24.9399 82.2506 26.3485C81.6706 27.6742 81.3806 29.1242 81.3806 30.6984C81.3806 33.1841 82.0848 35.2141 83.4934 36.7884C84.902 38.3627 87.1391 39.1498 90.2048 39.1498C93.6019 39.1498 96.0876 38.4455 97.6619 37.037C99.2362 35.5455 100.023 33.8056 100.023 31.817C100.023 30.2427 99.7333 28.7513 99.1533 27.3427C98.6562 25.9342 97.8276 24.1527 96.6676 21.9985C95.4248 19.7613 94.4719 17.8142 93.8091 16.1571C93.1462 14.4171 92.8148 12.5114 92.8148 10.4399C92.8148 7.37425 93.2705 5.17855 94.1819 3.85284C95.0934 2.52713 96.7505 1.86428 99.1533 1.86428H115.062C117.548 1.86428 119.246 2.52713 120.158 3.85284C121.069 5.17855 121.525 7.37425 121.525 10.4399V66.3683C121.525 73.7425 120.199 79.3354 117.548 83.1468C114.979 86.9582 111.209 88.8639 106.238 88.8639H68.3306Z" fill="#F0EDE6"/>
<path d="M132.823 88.8639C130.337 88.8639 128.639 88.201 127.727 86.8753C126.899 85.5496 126.484 83.3539 126.484 80.2882V10.4399C126.484 7.37425 126.899 5.17855 127.727 3.85284C128.639 2.52713 130.337 1.86428 132.823 1.86428H142.269C145.583 1.86428 147.24 3.10713 147.24 5.59283C147.24 7.00139 146.867 8.74139 146.121 10.8128C145.624 12.8014 145.376 14.0442 145.376 14.5414C145.376 15.2871 145.666 15.6599 146.246 15.6599C147.074 15.6599 147.944 15.2871 148.856 14.5414C149.85 13.7128 151.093 12.4699 152.584 10.8128C155.65 7.41568 158.55 4.76426 161.284 2.85856C164.019 0.952853 167.291 0 171.103 0C182.123 0 187.633 6.21426 187.633 18.6428V80.2882C187.633 83.3539 187.177 85.5496 186.266 86.8753C185.354 88.201 183.656 88.8639 181.17 88.8639H164.764C162.113 88.8639 160.29 88.2839 159.296 87.1239C158.301 85.881 157.804 83.8925 157.804 81.1582C157.804 77.2639 158.343 73.4939 159.42 69.8482C160.58 66.1197 162.237 61.5211 164.391 56.0526C166.546 50.8326 168.12 46.4826 169.114 43.0027C170.191 39.5227 170.73 36.0841 170.73 32.687C170.73 28.3784 169.943 25.1885 168.368 23.117C166.794 21.0456 164.64 20.0099 161.906 20.0099C158.509 20.0099 155.443 20.9628 152.709 22.8685C149.974 24.7742 147.82 27.4256 146.246 30.8227C144.671 34.2198 143.884 38.0727 143.884 42.3812C143.884 47.1869 144.257 51.3298 145.003 54.8097C145.749 58.2897 146.826 62.3083 148.234 66.8654C149.229 69.8483 149.974 72.4168 150.471 74.5711C150.969 76.6425 151.217 78.7968 151.217 81.0339C151.217 83.7682 150.637 85.7567 149.477 86.9996C148.317 88.2424 146.494 88.8639 144.009 88.8639H132.823Z" fill="#F0EDE6"/>
<path d="M207.642 88.8639C202.753 88.8639 199.232 87.0825 197.077 83.5196C194.923 79.9568 193.846 74.8197 193.846 68.1083C193.846 52.6969 195.503 37.8241 198.817 23.4899C202.132 9.07281 208.926 1.86428 219.2 1.86428H228.646C235.854 1.86428 241.323 5.92426 245.051 14.0442C248.863 22.0813 251.307 30.9884 252.384 40.7655C253.461 50.4598 254 59.574 254 68.1083C254 74.8197 252.923 79.9568 250.769 83.5196C248.614 87.0825 245.093 88.8639 240.204 88.8639H207.642ZM232.002 64.0069C234.487 64.0069 236.227 63.2197 237.222 61.6454C238.299 59.9883 238.837 57.4612 238.837 54.064C238.837 46.1926 237.884 39.6884 235.979 34.5513C234.073 29.3313 230.842 26.7213 226.284 26.7213H221.562C217.004 26.7213 213.773 29.2899 211.867 34.427C209.962 39.4812 209.009 46.0269 209.009 54.064C209.009 57.4612 209.506 59.9883 210.5 61.6454C211.577 63.2197 213.359 64.0069 215.844 64.0069H232.002Z" fill="#F0EDE6"/>
</svg>
