<svg width="186" height="305" viewBox="0 0 186 305" fill="none" xmlns="http://www.w3.org/2000/svg">
<path d="M165.83 220.733C161.355 221.687 157.412 203.812 156 194.756L166.685 182V162.05L180.486 156C182.674 161.382 186.745 172.913 185.528 175.98C184.006 179.814 174.593 192.349 170.967 195.462C167.342 198.575 168.635 211.946 168.311 215.914C168.053 219.089 166.549 220.449 165.83 220.733Z" fill="#616947"/>
<path d="M156 194.756L166.685 182V162.05C159.973 169.69 156.765 187.037 156 194.756Z" fill="#616947"/>
<path d="M151.164 69.2567C149.324 71.5987 144.511 77.5607 142.482 82.6724C141 86.4439 138.037 96.438 138.037 106.243C137.878 107.74 138.152 111.47 140.521 114.417C143.863 120.333 152.479 132.454 160.212 133.612C167.945 134.77 171.049 136.889 171.634 137.804C172.139 138.346 173.417 139.218 174.483 138.366C175.549 137.515 175.445 135.562 175.259 134.692L158.474 56C156.556 56.1491 152.409 59.0092 151.164 69.2567Z" fill="#616947"/>
<path d="M146.474 164.063C143.635 152.582 135.235 129.653 122 133.411L127.211 180.5L137.388 196.415L151.714 199.598L156.14 194.754L170.985 169.549L166.824 162.049L180.626 155.999C176.234 153.687 165.808 149.412 159.244 150.812C156.499 152.567 149.633 158.399 146.474 164.063Z" fill="#6D8B00"/>
<path d="M117.977 203.918C114.531 197.015 103.717 181.622 87.8075 174.694C79.1683 174.052 61.6008 180.34 60.4449 210.633L81.7806 233.474C84.0021 233.44 94.3515 227.482 117.977 203.918Z" fill="#8EB20A"/>
<path fill-rule="evenodd" clip-rule="evenodd" d="M143.01 37.934C142.042 28.5225 137.034 9.18531 124.741 7.12823C112.449 5.07115 69.9968 1.51896 50.3071 0L27.6266 16.1452L26.3931 24.9864L7.89969 35.1697L20.6688 51.1619L12.2894 68.5458L30.5534 75.5677L25.1576 92.3152L38.6033 96.8556L41.1489 108.79L28.2497 117.78L37.7717 131.345L36.0558 143.409L21.451 153.543L33.3698 167.377L34.8812 174.463L25.4377 190.514L38.1324 200.673L37.1375 210.633L27.8335 220.026L34.3472 232.284L28.4493 244.849L17.6338 247.156L17.7031 258.449L0 277.822L38.6033 255.142L64.0091 232.284L60.4449 210.633C61.6008 180.34 79.1683 174.052 87.8075 174.694C87.6277 174.616 87.4472 174.539 87.2661 174.463C94.6084 174.218 105.607 180.135 117.009 189.896L124.623 165.95L120.5 142L89.4996 132.706L91.0091 129.142L67.5815 121.5C65.6372 118.867 62.2007 111.681 64.0091 104C65.8175 96.3193 76.7568 91.6192 82.0004 90.2293H100.746C100.837 87.6104 101.51 82.1121 103.471 81.0699C104.499 80.5235 108.583 80.1486 113.284 79.717C119.791 79.1196 127.482 78.4135 129.896 76.9932C134.053 74.5469 136.54 64.2686 135.983 61.658L87.2661 65.4206L82.0004 57.1858L33.8758 54.5835L34.786 49.7104L59.4996 52.2373L89.4996 41.1594L97.4555 49.2103L143.01 37.934ZM55.8362 11.2979C58.2231 10.7888 64.6609 11.2352 67.5815 11.5221C68.8012 17.2406 70.9523 29.519 69.7985 32.8844C68.4816 36.7258 66.1239 37.2128 61.7486 38.1164C61.3326 38.2023 60.8983 38.292 60.4449 38.3887C56.2679 39.2797 54.7994 37.5133 54.5873 36.5188L52.3155 16.7278C52.4945 15.13 53.4494 11.807 55.8362 11.2979ZM76.9744 20.8261C75.638 14.5606 77.9327 11.9136 79.2472 11.3733C82.5291 10.6733 92.2969 12.229 96.7705 13.0944C100.542 13.2258 101.857 22.927 102.19 27.535C99.0115 31.6442 85.8583 33.228 79.679 33.5063L76.9744 20.8261ZM127.386 26.8397C124.451 21.8511 119.245 17.9186 117.009 16.5759C116.611 14.7112 119.222 14.1543 121.459 13.677C123.697 13.1997 134.264 20.6938 131.996 24.6867C130.182 27.881 128.167 27.453 127.386 26.8397Z" fill="#C8FF00"/>
<path d="M81.7806 233.474L60.4449 210.633L64.0091 232.284L38.6033 255.142L0 277.822C16.8387 280.599 56.7691 275.617 81.7806 233.474Z" fill="#8EB20A"/>
<path d="M117.977 203.918C121.922 200.477 130.356 192.856 132.532 189.896L127.676 143.362L125.019 134.09L124.387 132.731L111.509 134.09L91.0091 129.142L89.4996 132.706L120.5 142L124.623 165.95L117.009 189.896C105.607 180.135 94.6084 174.218 87.2661 174.463C87.4472 174.539 87.6277 174.616 87.8075 174.694C103.717 181.622 114.531 197.015 117.977 203.918Z" fill="#8EB20A"/>
<path d="M115.479 113.601L100.746 90.2293H82.0004C76.7568 91.6192 65.8175 96.3193 64.0091 104C62.2007 111.681 65.6372 118.867 67.5815 121.5L91.0091 129.142L111.509 134.09L124.387 132.731L115.479 113.601Z" fill="#C8FF00"/>
<path d="M109.979 112.266L95.2465 88.8948H76.5009C71.2573 90.2847 60.318 94.9847 58.5096 102.665C56.7012 110.346 60.1377 117.532 62.082 120.165L85.5096 127.807L106.01 132.756L137.564 104.307L150.692 106.807L150.692 94.3073L143.01 90.8073L150.01 86.8073L148.51 83.8073L142.635 80.7364C136.476 78.6709 124.014 79.7173 123.441 100.427L109.979 112.266Z" fill="#C8FF00"/>
<path fill-rule="evenodd" clip-rule="evenodd" d="M81.1421 173.002C97.8431 177.712 110.641 191.5 114.99 197.873L124.041 222.985L106.774 257.177L121.331 270.577C138.471 265.048 145.603 278.313 147.027 285.637L136.235 288.31L137.916 292.974L105.641 300.147L79.8386 265.669L83.1271 232.056L58.896 212.314C55.9408 182.143 72.4954 173.535 81.1421 173.002Z" fill="#C8FF00"/>
</svg>
